<svg width="20" height="20" viewBox="0 0 20 20" fill="none" xmlns="http://www.w3.org/2000/svg">
<g clip-path="url(#clip0_15190_37392)">
<path d="M6.87505 5.88295C6.64317 5.64762 6.51319 5.33051 6.51319 5.00014C6.51319 4.66977 6.64317 4.35266 6.87505 4.11733L9.11723 1.87514C9.23274 1.75845 9.37024 1.66582 9.52177 1.6026C9.6733 1.53939 9.83586 1.50684 10 1.50684C10.1642 1.50684 10.3268 1.53939 10.4783 1.6026C10.6299 1.66582 10.7674 1.75845 10.8829 1.87514L13.125 4.11733C13.3569 4.35266 13.4869 4.66977 13.4869 5.00014C13.4869 5.33051 13.3569 5.64762 13.125 5.88295L10.8829 8.12514C10.7674 8.24183 10.6299 8.33446 10.4783 8.39768C10.3268 8.46089 10.1642 8.49345 10 8.49345C9.83586 8.49345 9.6733 8.46089 9.52177 8.39768C9.37024 8.33446 9.23274 8.24183 9.11723 8.12514L6.87505 5.88295ZM18.1251 9.11733L15.8829 6.87514C15.7674 6.75845 15.6299 6.66582 15.4783 6.6026C15.3268 6.53939 15.1642 6.50684 15.0001 6.50684C14.8359 6.50684 14.6733 6.53939 14.5218 6.6026C14.3702 6.66582 14.2327 6.75845 14.1172 6.87514L11.875 9.11733C11.6432 9.35266 11.5132 9.66977 11.5132 10.0001C11.5132 10.3305 11.6432 10.6476 11.875 10.883L14.1172 13.1251C14.2327 13.2418 14.3702 13.3345 14.5218 13.3977C14.6733 13.4609 14.8359 13.4934 15.0001 13.4934C15.1642 13.4934 15.3268 13.4609 15.4783 13.3977C15.6299 13.3345 15.7674 13.2418 15.8829 13.1251L18.1251 10.883C18.3569 10.6476 18.4869 10.3305 18.4869 10.0001C18.4869 9.66977 18.3569 9.35266 18.1251 9.11733V9.11733ZM8.12505 9.11733L5.88286 6.87514C5.76735 6.75845 5.62985 6.66582 5.47832 6.6026C5.32679 6.53939 5.16423 6.50684 5.00004 6.50684C4.83585 6.50684 4.67329 6.53939 4.52176 6.6026C4.37023 6.66582 4.23274 6.75845 4.11723 6.87514L1.87504 9.11733C1.64316 9.35266 1.51318 9.66977 1.51318 10.0001C1.51318 10.3305 1.64316 10.6476 1.87504 10.883L4.11723 13.1251C4.23274 13.2418 4.37023 13.3345 4.52176 13.3977C4.67329 13.4609 4.83585 13.4934 5.00004 13.4934C5.16423 13.4934 5.32679 13.4609 5.47832 13.3977C5.62985 13.3345 5.76735 13.2418 5.88286 13.1251L8.12505 10.883C8.35692 10.6476 8.4869 10.3305 8.4869 10.0001C8.4869 9.66977 8.35692 9.35266 8.12505 9.11733V9.11733ZM10.8829 11.8751C10.7674 11.7585 10.6299 11.6658 10.4783 11.6026C10.3268 11.5394 10.1642 11.5068 10 11.5068C9.83586 11.5068 9.6733 11.5394 9.52177 11.6026C9.37024 11.6658 9.23274 11.7585 9.11723 11.8751L6.87505 14.1173C6.64317 14.3527 6.51319 14.6698 6.51319 15.0001C6.51319 15.3305 6.64317 15.6476 6.87505 15.883L9.11723 18.1251C9.23274 18.2418 9.37024 18.3345 9.52177 18.3977C9.6733 18.4609 9.83586 18.4934 10 18.4934C10.1642 18.4934 10.3268 18.4609 10.4783 18.3977C10.6299 18.3345 10.7674 18.2418 10.8829 18.1251L13.125 15.883C13.3569 15.6476 13.4869 15.3305 13.4869 15.0001C13.4869 14.6698 13.3569 14.3527 13.125 14.1173L10.8829 11.8751Z" fill="#0517F8"/>
</g>
<defs>
<clipPath id="clip0_15190_37392">
<rect width="20" height="20" fill="white"/>
</clipPath>
</defs>
</svg>
