<svg width="20" height="20" viewBox="0 0 20 20" fill="none" xmlns="http://www.w3.org/2000/svg">
<path d="M16.875 3.75H3.125C2.77982 3.75 2.5 4.02982 2.5 4.375V15.625C2.5 15.9702 2.77982 16.25 3.125 16.25H16.875C17.2202 16.25 17.5 15.9702 17.5 15.625V4.375C17.5 4.02982 17.2202 3.75 16.875 3.75Z" stroke="#748094" stroke-width="1.2" stroke-linecap="round" stroke-linejoin="round"/>
<path d="M2.5 13.1249L6.42969 9.19524C6.48784 9.13619 6.55716 9.08929 6.63361 9.05728C6.71006 9.02527 6.79212 9.00879 6.875 9.00879C6.95788 9.00879 7.03994 9.02527 7.11639 9.05728C7.19284 9.08929 7.26216 9.13619 7.32031 9.19524L10.8047 12.6796C10.8628 12.7387 10.9322 12.7856 11.0086 12.8176C11.0851 12.8496 11.1671 12.8661 11.25 12.8661C11.3329 12.8661 11.4149 12.8496 11.4914 12.8176C11.5678 12.7856 11.6372 12.7387 11.6953 12.6796L13.3047 11.0702C13.3628 11.0112 13.4322 10.9643 13.5086 10.9323C13.5851 10.9003 13.6671 10.8838 13.75 10.8838C13.8329 10.8838 13.9149 10.9003 13.9914 10.9323C14.0678 10.9643 14.1372 11.0112 14.1953 11.0702L17.5 14.3749" stroke="#748094" stroke-width="1.2" stroke-linecap="round" stroke-linejoin="round"/>
<path d="M12.1875 8.75C12.7053 8.75 13.125 8.33027 13.125 7.8125C13.125 7.29473 12.7053 6.875 12.1875 6.875C11.6697 6.875 11.25 7.29473 11.25 7.8125C11.25 8.33027 11.6697 8.75 12.1875 8.75Z" fill="#748094"/>
</svg>
