<svg width="20" height="20" viewBox="0 0 20 20" fill="none" xmlns="http://www.w3.org/2000/svg">
<g clip-path="url(#clip0_14360_185935)">
<path d="M9.5554 2.31862L7.31255 4.56148C7.06847 4.80555 7.06847 5.20128 7.31255 5.44536L9.55374 7.68656C9.79782 7.93063 10.1935 7.93063 10.4376 7.68656L12.6805 5.4437C12.9246 5.19962 12.9246 4.8039 12.6805 4.55982L10.4393 2.31862C10.1952 2.07454 9.79948 2.07454 9.5554 2.31862Z" stroke="#0517F8" stroke-width="1.3" stroke-linecap="round" stroke-linejoin="round"/>
<path d="M14.5559 7.31862L12.313 9.56148C12.069 9.80555 12.069 10.2013 12.313 10.4454L14.5542 12.6866C14.7983 12.9306 15.194 12.9306 15.4381 12.6866L17.681 10.4437C17.9251 10.1996 17.9251 9.8039 17.681 9.55982L15.4398 7.31862C15.1957 7.07454 14.8 7.07454 14.5559 7.31862Z" stroke="#0517F8" stroke-width="1.3" stroke-linecap="round" stroke-linejoin="round"/>
<path d="M4.5554 7.31179L2.31255 9.55464C2.06847 9.79872 2.06847 10.1944 2.31255 10.4385L4.55374 12.6797C4.79782 12.9238 5.19355 12.9238 5.43763 12.6797L7.68048 10.4369C7.92456 10.1928 7.92456 9.79706 7.68048 9.55298L5.43928 7.31179C5.19521 7.06771 4.79948 7.06771 4.5554 7.31179Z" stroke="#0517F8" stroke-width="1.3" stroke-linecap="round" stroke-linejoin="round"/>
<path d="M9.55589 12.3118L7.31304 14.5546C7.06896 14.7987 7.06896 15.1944 7.31304 15.4385L9.55424 17.6797C9.79831 17.9238 10.194 17.9238 10.4381 17.6797L12.681 15.4369C12.9251 15.1928 12.9251 14.7971 12.681 14.553L10.4398 12.3118C10.1957 12.0677 9.79997 12.0677 9.55589 12.3118Z" stroke="#0517F8" stroke-width="1.3" stroke-linecap="round" stroke-linejoin="round"/>
</g>
<defs>
<clipPath id="clip0_14360_185935">
<rect width="20" height="20" fill="white"/>
</clipPath>
</defs>
</svg>
