<svg width="120" height="114" viewBox="0 0 120 114" fill="none" xmlns="http://www.w3.org/2000/svg">
<path d="M109.248 67.2417C109.106 67.2417 108.966 67.1975 108.85 67.1151C108.733 67.0327 108.645 66.9161 108.597 66.7815L106.651 61.2136C106.59 61.0409 106.6 60.8511 106.679 60.6858C106.758 60.5206 106.899 60.3934 107.072 60.3324C107.245 60.2714 107.434 60.2815 107.6 60.3604C107.765 60.4394 107.892 60.5808 107.953 60.7535L109.902 66.319C109.932 66.4048 109.945 66.4957 109.94 66.5865C109.935 66.6773 109.912 66.7662 109.872 66.8481C109.833 66.93 109.777 67.0033 109.709 67.0637C109.641 67.1241 109.562 67.1705 109.476 67.2002C109.403 67.2264 109.326 67.2404 109.248 67.2417Z" fill="#172B4D"/>
<path d="M116.454 67.2418C116.376 67.2416 116.298 67.2284 116.224 67.2027C116.139 67.1727 116.06 67.1262 115.992 67.0656C115.924 67.0051 115.869 66.9318 115.83 66.85C115.79 66.7681 115.768 66.6793 115.763 66.5886C115.758 66.4979 115.771 66.4071 115.801 66.3215L117.747 60.7559C117.809 60.5832 117.936 60.4418 118.101 60.3629C118.266 60.2839 118.456 60.2738 118.629 60.3349C118.801 60.3959 118.943 60.523 119.022 60.6883C119.101 60.8535 119.111 61.0434 119.05 61.2161L117.099 66.7794C117.052 66.9133 116.965 67.0296 116.85 67.1123C116.734 67.1951 116.596 67.2403 116.454 67.2418Z" fill="#172B4D"/>
<path d="M113.07 65.0239C112.887 65.0239 112.711 64.9512 112.582 64.8218C112.453 64.6923 112.38 64.5168 112.38 64.3337L112.403 58.4368C112.403 58.2538 112.476 58.0782 112.605 57.9487C112.735 57.8193 112.91 57.7466 113.093 57.7466C113.276 57.7466 113.452 57.8193 113.581 57.9487C113.711 58.0782 113.783 58.2538 113.783 58.4368L113.76 64.336C113.76 64.5187 113.687 64.6936 113.557 64.8226C113.428 64.9515 113.253 65.0239 113.07 65.0239Z" fill="#172B4D"/>
<path d="M107.879 84.4812C107.696 84.4934 107.516 84.4324 107.378 84.3116C107.24 84.1908 107.155 84.0201 107.143 83.837C107.131 83.654 107.192 83.4735 107.313 83.3355C107.434 83.1974 107.604 83.113 107.787 83.1008L110.926 82.6728C111.107 82.6481 111.291 82.6965 111.437 82.8074C111.583 82.9183 111.679 83.0826 111.703 83.2641C111.728 83.4457 111.68 83.6296 111.569 83.7754C111.458 83.9212 111.293 84.0171 111.112 84.0418L107.974 84.4812C107.942 84.4835 107.911 84.4835 107.879 84.4812Z" fill="#172B4D"/>
<path d="M107.382 81.8496C107.23 81.8499 107.083 81.8002 106.962 81.7081C106.841 81.6161 106.754 81.4869 106.715 81.3404C106.675 81.194 106.684 81.0385 106.742 80.8981C106.799 80.7576 106.901 80.64 107.032 80.5634L109.77 78.9529C109.849 78.9 109.937 78.8638 110.03 78.8465C110.123 78.8293 110.219 78.8313 110.311 78.8526C110.403 78.8738 110.49 78.9137 110.566 78.97C110.642 79.0262 110.706 79.0974 110.753 79.1793C110.801 79.2611 110.831 79.3519 110.842 79.4459C110.853 79.5398 110.844 79.6351 110.817 79.7256C110.789 79.8161 110.743 79.9001 110.682 79.9721C110.621 80.0442 110.545 80.103 110.461 80.1447L107.723 81.7552C107.619 81.8157 107.502 81.8482 107.382 81.8496Z" fill="#172B4D"/>
<path d="M71.7506 113.895C71.6245 113.895 71.4986 113.888 71.3732 113.874L21.9824 108.338V2.58752L70.9154 0.272941C71.3708 0.248303 71.8265 0.317254 72.2543 0.475539C72.682 0.633824 73.0728 0.878086 73.4025 1.19325C73.7345 1.50611 73.9994 1.88326 74.1809 2.30175C74.3625 2.72024 74.4569 3.17131 74.4586 3.62748L75.135 110.48C75.1374 110.926 75.0517 111.369 74.8827 111.781C74.7138 112.194 74.4649 112.57 74.1504 112.886C73.8359 113.203 73.462 113.454 73.0502 113.625C72.6383 113.797 72.1967 113.885 71.7506 113.885V113.895ZM23.3629 107.105L71.5274 112.503C71.8088 112.534 72.0936 112.505 72.3631 112.418C72.6327 112.332 72.8808 112.189 73.0911 111.999C73.3015 111.81 73.4694 111.578 73.5837 111.319C73.698 111.06 73.7563 110.78 73.7545 110.496L73.0781 3.64588C73.0765 3.37565 73.0204 3.10852 72.913 2.86053C72.8057 2.61253 72.6493 2.38878 72.4534 2.2027C72.2574 2.01662 72.0259 1.87205 71.7727 1.77766C71.5194 1.68327 71.2498 1.64101 70.9798 1.65341L23.3537 3.90127L23.3629 107.105Z" fill="#172B4D"/>
<path d="M73.7822 5.65674L83.1464 6.11689C83.5032 6.13431 83.8402 6.2865 84.0892 6.54274C84.3381 6.79898 84.4806 7.14016 84.4877 7.49736C85.0077 39.5426 85.5285 71.5894 86.05 103.638C86.0528 103.829 86.017 104.018 85.9447 104.194C85.8724 104.371 85.7651 104.531 85.6292 104.665C85.4933 104.799 85.3317 104.904 85.1541 104.974C84.9765 105.044 84.7866 105.077 84.5959 105.071L74.4103 104.763" fill="#172B4D"/>
<path d="M84.6364 106.007H84.5673L74.3818 105.697L74.437 103.856L84.6226 104.164C84.689 104.166 84.7551 104.155 84.8169 104.13C84.8787 104.106 84.9349 104.069 84.9822 104.023C85.0295 103.976 85.0668 103.92 85.092 103.859C85.1172 103.797 85.1297 103.732 85.1287 103.665L83.5665 7.52711C83.5639 7.40367 83.5153 7.28566 83.4302 7.19626C83.345 7.10686 83.2295 7.05253 83.1064 7.04394L73.7422 6.58379L73.8342 4.74316L83.1984 5.20332C83.7905 5.23473 84.3486 5.48976 84.7599 5.91685C85.1711 6.34394 85.405 6.91124 85.414 7.5041L86.9763 103.644C86.9811 103.954 86.9244 104.261 86.8094 104.549C86.6943 104.836 86.5232 105.097 86.3061 105.318C86.089 105.539 85.8301 105.714 85.5447 105.833C85.2592 105.953 84.9528 106.014 84.6433 106.014L84.6364 106.007Z" fill="#172B4D"/>
<path d="M65.345 61.6715C63.6194 61.6715 62.209 60.0402 62.209 58.0455C62.209 56.0507 63.6194 54.4194 65.345 54.4194C67.0705 54.4194 68.4809 56.0507 68.4809 58.0455C68.4809 60.0402 67.0705 61.6715 65.345 61.6715Z" fill="#172B4D"/>
<path d="M75.5674 64.2944C77.2335 66.2111 79.2012 67.8431 81.393 69.1261C82.8678 69.9889 85.7115 71.627 89.6574 72.025C91.8431 72.2551 93.6193 72.0389 96.0995 71.749C97.6873 71.564 99.2646 71.2983 100.825 70.9529C100.534 74.5421 100.245 78.1313 99.9579 81.7205C98.6579 82.432 97.2917 83.0153 95.8787 83.4622C93.8402 84.1182 91.7177 84.4763 89.5768 84.5252C87.0983 84.5358 84.638 84.1009 82.3133 83.2413C81.3291 82.8519 80.3661 82.4111 79.4281 81.9207C77.8336 81.1315 76.5406 80.3907 75.6272 79.85C75.6088 74.6548 75.5889 69.4697 75.5674 64.2944Z" fill="#0517F8"/>
<path d="M89.4246 85.096C86.9288 85.0852 84.4541 84.6374 82.1128 83.7731C81.1936 83.414 80.2943 83.0062 79.4185 82.5513L79.1724 82.4294C77.8632 81.7806 76.5702 81.0719 75.3301 80.3242L75.054 80.1562L74.9941 62.7485L76.0088 63.9173C77.6328 65.7896 79.5516 67.3843 81.6894 68.6385C83.0377 69.4277 85.8469 71.0705 89.7214 71.4593C91.845 71.6733 93.6005 71.4593 96.0302 71.1855C97.5986 71.0023 99.1566 70.7396 100.698 70.3986L101.458 70.2284L100.512 82.0705L100.241 82.22C98.9068 82.948 97.5061 83.5459 96.0578 84.0054C93.9646 84.6771 91.7857 85.0436 89.588 85.0937L89.4246 85.096ZM76.202 79.5051C77.3294 80.1769 78.5028 80.812 79.6831 81.3987L79.9316 81.5229C80.7715 81.9579 81.6331 82.3495 82.5131 82.6963C84.7727 83.5299 87.1634 83.9523 89.5719 83.9433C91.6549 83.8948 93.72 83.5461 95.7035 82.908C96.9821 82.503 98.2219 81.984 99.4077 81.3572L100.181 71.6825C98.8532 71.954 97.505 72.1702 96.1567 72.329C93.6558 72.6189 91.8473 72.8306 89.5995 72.6051C85.4742 72.1886 82.52 70.4607 81.1004 69.6302C79.2853 68.5676 77.6189 67.2695 76.1445 65.7695L76.202 79.5051Z" fill="#172B4D"/>
<path d="M100.62 73.417L104.846 74.1072C105.451 74.2191 106 74.5293 106.408 74.9888C106.816 75.4483 107.059 76.0308 107.099 76.6441C107.139 77.2573 106.973 77.8662 106.627 78.3744C106.282 78.8826 105.776 79.261 105.192 79.4496L100.072 80.3561C100.252 78.0446 100.434 75.7316 100.62 73.417Z" fill="#00A5BC"/>
<path d="M99.4336 81.0511L100.096 72.7476L104.978 73.5482C105.699 73.6943 106.351 74.0736 106.834 74.6275C107.317 75.1814 107.604 75.8791 107.65 76.6125C107.697 77.3459 107.501 78.0743 107.092 78.6849C106.683 79.2955 106.084 79.7543 105.388 79.9904L105.291 80.0157L99.4336 81.0511ZM101.143 74.0866L100.699 79.6614L105.041 78.8975C105.495 78.7384 105.885 78.434 106.149 78.0312C106.414 77.6285 106.538 77.15 106.503 76.6695C106.468 76.189 106.276 75.7334 105.957 75.373C105.637 75.0126 105.207 74.7675 104.735 74.6756L101.143 74.0866Z" fill="#172B4D"/>
<path d="M112.117 89.7734C110.932 89.7734 109.968 89.5088 109.244 88.9819C107.904 88.0064 107.594 86.3383 107.124 83.8121C107.076 83.5406 107.035 83.2875 106.996 83.0459C106.832 82.0405 106.726 81.3755 106.167 80.7727C105.838 80.4254 105.434 80.1585 104.985 79.9928L105.399 78.9206C106.01 79.1495 106.561 79.5155 107.009 79.9905C107.803 80.8487 107.955 81.7828 108.128 82.8641C108.167 83.0942 108.206 83.3404 108.254 83.6004C108.687 85.938 108.944 87.3461 109.918 88.0524C110.608 88.5471 111.636 88.7219 112.998 88.5724C113.398 88.5285 113.791 88.4422 114.172 88.3147L111.358 72.0965H110.79C109.874 72.0699 108.959 72.1277 108.054 72.2691C107.378 72.4163 106.356 72.911 105.321 74.4387L104.368 73.7922C105.615 71.9515 106.929 71.3349 107.819 71.144C108.804 70.9846 109.802 70.9183 110.799 70.9461C111.259 70.9461 111.618 70.9461 111.866 70.9576H112.327L115.463 89.0325L115.039 89.2097C114.427 89.4686 113.781 89.6368 113.12 89.709C112.787 89.7489 112.453 89.7704 112.117 89.7734Z" fill="#172B4D"/>
<path d="M104.191 85.4018C103.675 85.402 103.177 85.2157 102.788 84.8772C102.44 84.5666 102.042 83.9822 102.109 82.9561C102.203 81.4974 103.512 80.2389 104.693 79.6867C105.447 79.3324 106.062 79.3002 106.469 79.597C107.212 80.1376 106.869 81.2535 106.301 83.1033C105.806 84.7139 105.328 85.0912 104.92 85.2615C104.689 85.3552 104.441 85.4029 104.191 85.4018ZM105.746 80.5472C105.309 80.6337 104.9 80.8247 104.552 81.104C103.782 81.6676 103.298 82.3855 103.257 83.0297C103.227 83.4899 103.328 83.8166 103.554 84.019C103.678 84.1272 103.828 84.2007 103.99 84.2323C104.151 84.2638 104.319 84.2521 104.474 84.1985C104.628 84.1341 104.897 83.7245 105.194 82.7651C105.454 81.9299 105.765 80.9199 105.746 80.538V80.5472Z" fill="#172B4D"/>
<path d="M116.031 90.1761C115.702 90.1687 115.379 90.0873 115.086 89.938C114.793 89.7886 114.537 89.5751 114.338 89.3133L115.244 88.6047C115.566 89.0165 116.063 89.1155 116.323 88.9498C116.4 88.8869 116.463 88.8094 116.51 88.7216C116.556 88.6339 116.584 88.5378 116.593 88.439L113.629 70.7759C113.403 70.737 113.17 70.756 112.953 70.8312C112.76 70.9096 112.586 71.0281 112.442 71.1789C112.299 71.3296 112.189 71.5091 112.12 71.7055L111.029 71.3419C111.153 70.9805 111.355 70.6507 111.62 70.3756C111.885 70.1005 112.207 69.8869 112.564 69.7498C113.145 69.5479 113.78 69.5626 114.352 69.7912L114.651 69.9132L117.748 88.393V88.4597C117.734 88.748 117.654 89.0292 117.515 89.282C117.376 89.5347 117.181 89.7524 116.945 89.9184C116.671 90.0898 116.354 90.1792 116.031 90.1761Z" fill="#172B4D"/>
<path d="M63.5705 59.9482C61.999 59.9482 60.7129 58.4619 60.7129 56.6442C60.7129 54.8266 61.999 53.3403 63.5705 53.3403C65.1419 53.3403 66.428 54.8266 66.428 56.6442C66.428 58.4619 65.1419 59.9482 63.5705 59.9482Z" fill="#0517F8"/>
<path d="M63.5705 60.5234C61.6769 60.5234 60.1377 58.784 60.1377 56.6443C60.1377 54.5045 61.6769 52.7651 63.5705 52.7651C65.464 52.7651 67.0032 54.5045 67.0032 56.6443C67.0032 58.784 65.4617 60.5234 63.5705 60.5234ZM63.5705 53.9155C62.3119 53.9155 61.2881 55.1395 61.2881 56.6443C61.2881 58.149 62.3119 59.373 63.5705 59.373C64.829 59.373 65.8528 58.149 65.8528 56.6443C65.8528 55.1395 64.829 53.9155 63.5705 53.9155Z" fill="#172B4D"/>
<path d="M74.6856 105.203L74.6709 106.583L109.489 106.954L109.504 105.574L74.6856 105.203Z" fill="#172B4D"/>
<path d="M0.923877 104.421L0.90918 105.801L22.296 106.029L22.3107 104.649L0.923877 104.421Z" fill="#172B4D"/>
</svg>
