<svg width="20" height="20" viewBox="0 0 20 20" fill="none" xmlns="http://www.w3.org/2000/svg">
<g clip-path="url(#clip0_14360_185940)">
<path d="M6.5616 11.6923L3.69233 14.5616C3.38008 14.8738 3.38008 15.3801 3.69233 15.6923L6.55948 18.5595C6.87173 18.8717 7.37798 18.8717 7.69023 18.5595L10.5595 15.6902C10.8717 15.378 10.8717 14.8717 10.5595 14.5595L7.69235 11.6923C7.3801 11.3801 6.87385 11.3801 6.5616 11.6923Z" stroke="#748094" stroke-width="1.3" stroke-linecap="round" stroke-linejoin="round"/>
<path d="M11.875 2.5V6.875H16.25" stroke="#748094" stroke-width="1.3" stroke-linecap="round" stroke-linejoin="round"/>
<path d="M12.5 17.5H15.625C15.7908 17.5 15.9497 17.4342 16.0669 17.3169C16.1842 17.1997 16.25 17.0408 16.25 16.875V6.875L11.875 2.5H4.375C4.20924 2.5 4.05027 2.56585 3.93306 2.68306C3.81585 2.80027 3.75 2.95924 3.75 3.125V10.625" stroke="#748094" stroke-width="1.3" stroke-linecap="round" stroke-linejoin="round"/>
</g>
<defs>
<clipPath id="clip0_14360_185940">
<rect width="20" height="20" fill="white"/>
</clipPath>
</defs>
</svg>
