<svg width="20" height="20" viewBox="0 0 20 20" fill="none" xmlns="http://www.w3.org/2000/svg">
<g clip-path="url(#clip0_15190_25478)">
<path d="M2.5 16.25V5C2.5 4.83424 2.56585 4.67527 2.68306 4.55806C2.80027 4.44085 2.95924 4.375 3.125 4.375H7.28906C7.4242 4.37556 7.55562 4.41936 7.66406 4.5L9.83594 6.125C9.94438 6.20564 10.0758 6.24944 10.2109 6.25H15.625C15.7908 6.25 15.9497 6.31585 16.0669 6.43306C16.1842 6.55027 16.25 6.70924 16.25 6.875V8.75" stroke="#748094" stroke-width="1.4" stroke-linecap="round" stroke-linejoin="round"/>
<path d="M2.5 16.25L4.85938 9.17969C4.9005 9.05467 4.98004 8.94583 5.08666 8.86868C5.19327 8.79152 5.32152 8.74999 5.45313 8.75H17.8828C17.9816 8.74999 18.0791 8.77342 18.1671 8.81836C18.2551 8.86331 18.3312 8.92848 18.3892 9.00854C18.4471 9.0886 18.4852 9.18126 18.5004 9.27891C18.5156 9.37657 18.5074 9.47643 18.4766 9.57031L16.25 16.25H2.5Z" stroke="#748094" stroke-width="1.4" stroke-linecap="round" stroke-linejoin="round"/>
</g>
<defs>
<clipPath id="clip0_15190_25478">
<rect width="20" height="20" fill="white"/>
</clipPath>
</defs>
</svg>
