<svg width="16" height="16" viewBox="0 0 16 16" fill="none" xmlns="http://www.w3.org/2000/svg">
<path d="M5.24219 14.8749H1.75C1.58424 14.8749 1.42527 14.8091 1.30806 14.6919C1.19085 14.5747 1.125 14.4157 1.125 14.2499V10.7577C1.12472 10.6766 1.14044 10.5962 1.17128 10.5211C1.20211 10.446 1.24745 10.3778 1.30469 10.3202L10.6797 0.945244C10.7379 0.886191 10.8072 0.839295 10.8836 0.807284C10.9601 0.775274 11.0421 0.758789 11.125 0.758789C11.2079 0.758789 11.2899 0.775274 11.3664 0.807284C11.4428 0.839295 11.5122 0.886191 11.5703 0.945244L15.0547 4.42962C15.1138 4.48778 15.1607 4.5571 15.1927 4.63355C15.2247 4.71 15.2412 4.79205 15.2412 4.87493C15.2412 4.95781 15.2247 5.03987 15.1927 5.11632C15.1607 5.19277 15.1138 5.26209 15.0547 5.32024L5.67969 14.6952C5.62217 14.7525 5.55391 14.7978 5.47884 14.8287C5.40377 14.8595 5.32335 14.8752 5.24219 14.8749V14.8749Z" stroke="#0517F8" stroke-width="1.2" stroke-linecap="round" stroke-linejoin="round"/>
</svg>
